<svg xmlns="http://www.w3.org/2000/svg" viewBox="0 0 343.83 153.81"><defs><style>.cls-1,.cls-2{fill:#046;}.cls-2{stroke:#046;stroke-miterlimit:10;stroke-width:2px;}.cls-3{fill:#231f20;}</style></defs><g id="Layer_4" data-name="Layer 4"><path class="cls-1" d="M176.75,136.36l-2.05-3S92.84,165.73,90.77,166.7,86.54,168,83.56,172,24.8,239.68,23.68,241.74l2.13,3.14,22.41-7.31a23.57,23.57,0,0,0,4,7.78l3,4.74s-1.41,1.94.53,4.66,3.23,2.5,3.38,3.05,4.31,7.34,5,10.66,4.77,16.72,6.69,17.94,2,.91,1.49-1-2.17-6.93-1.23-4.73,2.37,5.76,2.37,5.76l2.1-.28-3.81-7.89,5.15,7,1-.66-2.69-4.94,3.66,4.28,1.94-1.31-3.15-3.86,4,2.73.67-.78L74.1,272l8.57,7.51s1.09-1.61-1.23-4.4-13.58-11.53-14.09-12.28-5.15-7.3-5.09-8.33-.66-6-4.72-5.53c0,0-7.79-10.86-6.72-12.35L93.89,224c2.55-.74,20.78-5.55,24.37-8S147.94,177.4,160,160.87,176.75,136.36,176.75,136.36Z" transform="translate(-23.68 -133.32)"/><path class="cls-1" d="M152.36,173.14l9.48,14a43.91,43.91,0,0,1-1.1,17.61c-2.59,8.73-6.56,19.76-10.27,26.71-3.29,6.2-5.57,10.68-13.72,17.21,0,0-5.67,4-17.74,5.68a116.48,116.48,0,0,1-27.5.51c-4.49-.52-13.59-2.15-18.43-4.68l-2.25-1.39-9.51-14.06s45.86-13.66,49.07-14.38,7.2-2.25,7.85-2.91a26.24,26.24,0,0,0,7-7.56Z" transform="translate(-23.68 -133.32)"/></g><g id="Layer_5" data-name="Layer 5"><path class="cls-1" d="M382.85,277.81" transform="translate(-23.68 -133.32)"/><path class="cls-2" d="M175.69,166.21h26.52c15.35,0,28.5,5.26,28.5,23,0,17.21-13.15,24.33-28.5,24.33h-7.67v23.89H175.69Zm25.21,32.44c7.45,0,11.4-3.28,11.4-9.42s-4-8.11-11.4-8.11h-6.36v17.53Zm10.63-2.52,23.13,41.32h-21l-14.8-28.82Z" transform="translate(-23.68 -133.32)"/><path class="cls-2" d="M244.3,166.21h48.44V182H263.15v11.18h25.21V209H263.15v12.71h30.69v15.78H244.3Z" transform="translate(-23.68 -133.32)"/><path class="cls-2" d="M301.29,166.21h19.95l7.45,31.13c2,7.56,3.29,14.91,5.27,22.58h.43c2-7.67,3.4-15,5.26-22.58l7.24-31.13h19.29l-21.05,71.24H322.34Z" transform="translate(-23.68 -133.32)"/></g><g id="Layer_6" data-name="Layer 6"><path class="cls-3" d="M177.6,248.49a2.89,2.89,0,0,1-2.22-.91,3.41,3.41,0,0,1-.83-2.37,3.58,3.58,0,0,1,.85-2.51,3,3,0,0,1,2.3-.93,2.77,2.77,0,0,1,2.17.91,3.37,3.37,0,0,1,.83,2.37,3.58,3.58,0,0,1-.85,2.51A2.88,2.88,0,0,1,177.6,248.49Zm.05-6a2.09,2.09,0,0,0-1.66.74,2.84,2.84,0,0,0-.64,1.94,2.9,2.9,0,0,0,.62,1.93,2,2,0,0,0,1.63.73,2.14,2.14,0,0,0,1.68-.69,2.88,2.88,0,0,0,.62-2,3,3,0,0,0-.6-2A2,2,0,0,0,177.65,242.46Z" transform="translate(-23.68 -133.32)"/><path class="cls-3" d="M187.21,248.38h-.93l-3.34-5.18a1.77,1.77,0,0,1-.21-.41h0a7.28,7.28,0,0,1,0,.89v4.7H182v-6.5h1l3.26,5.1c.13.21.22.35.26.43h0a6.54,6.54,0,0,1-.05-.95v-4.58h.76Z" transform="translate(-23.68 -133.32)"/><path class="cls-3" d="M192.29,248.38h-3.37v-6.5h.76v5.81h2.61Z" transform="translate(-23.68 -133.32)"/><path class="cls-3" d="M194.05,248.38h-.76v-6.5h.76Z" transform="translate(-23.68 -133.32)"/><path class="cls-3" d="M201,248.38h-.94l-3.34-5.18a1.77,1.77,0,0,1-.21-.41h0a5.63,5.63,0,0,1,0,.89v4.7h-.76v-6.5h1L200,247a4.33,4.33,0,0,1,.26.43h0a7,7,0,0,1,0-.95v-4.58H201Z" transform="translate(-23.68 -133.32)"/><path class="cls-3" d="M206.15,248.38H202.7v-6.5H206v.69h-2.54v2.16h2.35v.69h-2.35v2.27h2.69Z" transform="translate(-23.68 -133.32)"/><path class="cls-3" d="M215,248.38h-.84l-.69-1.82h-2.76l-.64,1.82h-.85l2.49-6.5h.79Zm-1.78-2.51-1-2.77a2.53,2.53,0,0,1-.1-.43h0a2.3,2.3,0,0,1-.1.43l-1,2.77Z" transform="translate(-23.68 -133.32)"/><path class="cls-3" d="M220.23,248.11a3.87,3.87,0,0,1-1.8.38,2.89,2.89,0,0,1-2.22-.9,3.3,3.3,0,0,1-.83-2.34,3.43,3.43,0,0,1,.94-2.52,3.18,3.18,0,0,1,2.38-1,3.81,3.81,0,0,1,1.53.27v.81a3.12,3.12,0,0,0-1.54-.39,2.38,2.38,0,0,0-1.82.75,2.83,2.83,0,0,0-.69,2,2.65,2.65,0,0,0,.65,1.89,2.2,2.2,0,0,0,1.7.7,3.21,3.21,0,0,0,1.7-.43Z" transform="translate(-23.68 -133.32)"/><path class="cls-3" d="M226.58,248.38h-.84l-.69-1.82H222.3l-.65,1.82h-.85l2.49-6.5h.79Zm-1.78-2.51-1-2.77a4.14,4.14,0,0,1-.1-.43h0a2.3,2.3,0,0,1-.1.43l-1,2.77Z" transform="translate(-23.68 -133.32)"/><path class="cls-3" d="M227.54,248.38v-6.5h1.8q3.43,0,3.43,3.17a3.22,3.22,0,0,1-1,2.42,3.59,3.59,0,0,1-2.56.91Zm.76-5.81v5.12h1a2.78,2.78,0,0,0,2-.68,2.56,2.56,0,0,0,.71-1.94c0-1.67-.88-2.5-2.65-2.5Z" transform="translate(-23.68 -133.32)"/><path class="cls-3" d="M237.49,248.38h-3.44v-6.5h3.3v.69h-2.54v2.16h2.35v.69h-2.35v2.27h2.68Z" transform="translate(-23.68 -133.32)"/><path class="cls-3" d="M244.65,248.38h-.76V244c0-.17,0-.37,0-.59s0-.45,0-.7h0a1,1,0,0,1-.08.24c0,.09-.07.17-.11.26a2.18,2.18,0,0,1-.12.22l-.07.15-1.67,3.08h-.37l-1.67-3.07a.78.78,0,0,0-.08-.16l-.11-.22-.11-.26c0-.09-.06-.17-.08-.24h0c0,.13,0,.3,0,.52s0,.48,0,.78v4.35h-.73v-6.5h.95l1.68,3.09a3.36,3.36,0,0,1,.19.38,2,2,0,0,1,.11.31h0c0-.09.07-.2.12-.32A3.44,3.44,0,0,1,242,245l1.68-3.07h1Z" transform="translate(-23.68 -133.32)"/><path class="cls-3" d="M247.11,248.38h-.76v-6.5h.76Z" transform="translate(-23.68 -133.32)"/><path class="cls-3" d="M253.25,248.11a3.9,3.9,0,0,1-1.8.38,2.89,2.89,0,0,1-2.22-.9,3.26,3.26,0,0,1-.84-2.34,3.47,3.47,0,0,1,.94-2.52,3.2,3.2,0,0,1,2.38-1,3.83,3.83,0,0,1,1.54.27v.81a3.13,3.13,0,0,0-1.55-.39,2.35,2.35,0,0,0-1.81.75,2.79,2.79,0,0,0-.7,2,2.69,2.69,0,0,0,.65,1.89,2.23,2.23,0,0,0,1.71.7,3.23,3.23,0,0,0,1.7-.43Z" transform="translate(-23.68 -133.32)"/><path class="cls-3" d="M261.77,248.38h-.91l-1.08-1.82a4.81,4.81,0,0,0-.29-.44,2,2,0,0,0-.29-.29,1.07,1.07,0,0,0-.32-.16,1.12,1.12,0,0,0-.38-.06h-.63v2.77h-.76v-6.5h1.94a2.79,2.79,0,0,1,.79.11,1.74,1.74,0,0,1,.62.32,1.58,1.58,0,0,1,.42.54,1.81,1.81,0,0,1,.15.76,1.75,1.75,0,0,1-.11.62,1.44,1.44,0,0,1-.29.51,1.68,1.68,0,0,1-.45.38,2.43,2.43,0,0,1-.59.24v0a1.87,1.87,0,0,1,.28.16,2.39,2.39,0,0,1,.23.22c.07.09.14.18.21.29l.24.38Zm-3.9-5.81v2.35h1a1.46,1.46,0,0,0,.52-.08,1.09,1.09,0,0,0,.42-.25,1.21,1.21,0,0,0,.28-.39,1.29,1.29,0,0,0,.1-.53,1,1,0,0,0-.34-.81,1.46,1.46,0,0,0-1-.29Z" transform="translate(-23.68 -133.32)"/><path class="cls-3" d="M266.11,248.38h-3.45v-6.5H266v.69h-2.54v2.16h2.35v.69h-2.35v2.27h2.69Z" transform="translate(-23.68 -133.32)"/><path class="cls-3" d="M267.06,248.12v-.9a1.61,1.61,0,0,0,.36.24,2.62,2.62,0,0,0,.46.19,2.77,2.77,0,0,0,.48.11,2.32,2.32,0,0,0,.44,0,1.69,1.69,0,0,0,1.05-.26,1,1,0,0,0,.23-1.21,1.47,1.47,0,0,0-.32-.35,2.66,2.66,0,0,0-.48-.31l-.6-.31c-.23-.11-.44-.23-.64-.35a3.42,3.42,0,0,1-.51-.39,1.61,1.61,0,0,1-.34-.48,1.54,1.54,0,0,1-.13-.63,1.51,1.51,0,0,1,.2-.78,1.65,1.65,0,0,1,.51-.54,2.12,2.12,0,0,1,.72-.31,2.91,2.91,0,0,1,.83-.11,3.22,3.22,0,0,1,1.4.23v.86a2.49,2.49,0,0,0-1.48-.4,2.72,2.72,0,0,0-.49,0,1.5,1.5,0,0,0-.45.17,1,1,0,0,0-.32.31.79.79,0,0,0-.12.45.85.85,0,0,0,.1.43,1,1,0,0,0,.27.33,2.58,2.58,0,0,0,.44.29l.6.31a7,7,0,0,1,.66.36,3.06,3.06,0,0,1,.55.42,2.25,2.25,0,0,1,.38.51,1.51,1.51,0,0,1,.13.65,1.67,1.67,0,0,1-.18.81,1.65,1.65,0,0,1-.51.54,2.13,2.13,0,0,1-.74.3,3.6,3.6,0,0,1-.88.1l-.38,0a4,4,0,0,1-.46-.07,3,3,0,0,1-.45-.12A1.28,1.28,0,0,1,267.06,248.12Z" transform="translate(-23.68 -133.32)"/><path class="cls-3" d="M277.05,245.75c0,1.83-.83,2.74-2.47,2.74s-2.37-.88-2.37-2.64v-4H273v3.92c0,1.34.56,2,1.69,2s1.62-.64,1.62-1.93v-4h.77Z" transform="translate(-23.68 -133.32)"/><path class="cls-3" d="M282,248.38h-3.37v-6.5h.76v5.81H282Z" transform="translate(-23.68 -133.32)"/><path class="cls-3" d="M286.37,242.57h-1.88v5.81h-.76v-5.81h-1.87v-.69h4.51Z" transform="translate(-23.68 -133.32)"/><path class="cls-3" d="M294.76,241.88l-2.4,6.5h-.84l-2.36-6.5H290l1.8,5.15a2.93,2.93,0,0,1,.13.58h0a2.44,2.44,0,0,1,.15-.59l1.83-5.14Z" transform="translate(-23.68 -133.32)"/><path class="cls-3" d="M299.14,248.38H295.7v-6.5H299v.69h-2.54v2.16h2.35v.69h-2.35v2.27h2.68Z" transform="translate(-23.68 -133.32)"/><path class="cls-3" d="M305.05,248.38h-.9l-1.09-1.82a4.81,4.81,0,0,0-.29-.44,2,2,0,0,0-.29-.29,1,1,0,0,0-.32-.16,1.12,1.12,0,0,0-.38-.06h-.63v2.77h-.76v-6.5h1.94a2.79,2.79,0,0,1,.79.11,1.87,1.87,0,0,1,.63.32,1.68,1.68,0,0,1,.41.54,1.81,1.81,0,0,1,.15.76,1.75,1.75,0,0,1-.1.62,1.83,1.83,0,0,1-.29.51,1.9,1.9,0,0,1-.46.38,2.43,2.43,0,0,1-.59.24v0a1.47,1.47,0,0,1,.28.16,2.39,2.39,0,0,1,.23.22l.22.29c.07.11.15.23.23.38Zm-3.9-5.81v2.35h1a1.55,1.55,0,0,0,.53-.08,1.27,1.27,0,0,0,.42-.25,1.19,1.19,0,0,0,.27-.39,1.29,1.29,0,0,0,.1-.53,1,1,0,0,0-.34-.81,1.46,1.46,0,0,0-1-.29Z" transform="translate(-23.68 -133.32)"/><path class="cls-3" d="M306.71,248.38H306v-6.5h.76Z" transform="translate(-23.68 -133.32)"/><path class="cls-3" d="M311.72,242.57h-2.54v2.25h2.35v.68h-2.35v2.88h-.76v-6.5h3.3Z" transform="translate(-23.68 -133.32)"/><path class="cls-3" d="M313.71,248.38H313v-6.5h.76Z" transform="translate(-23.68 -133.32)"/><path class="cls-3" d="M319.84,248.11a3.85,3.85,0,0,1-1.79.38,2.86,2.86,0,0,1-2.22-.9,3.26,3.26,0,0,1-.84-2.34,3.47,3.47,0,0,1,.94-2.52,3.2,3.2,0,0,1,2.38-1,3.74,3.74,0,0,1,1.53.27v.81a3.09,3.09,0,0,0-1.54-.39,2.34,2.34,0,0,0-1.81.75,2.79,2.79,0,0,0-.7,2,2.69,2.69,0,0,0,.65,1.89,2.2,2.2,0,0,0,1.71.7,3.17,3.17,0,0,0,1.69-.43Z" transform="translate(-23.68 -133.32)"/><path class="cls-3" d="M326.2,248.38h-.85l-.68-1.82h-2.76l-.65,1.82h-.85l2.5-6.5h.78Zm-1.78-2.51-1-2.77a1.82,1.82,0,0,1-.1-.43h0a2.19,2.19,0,0,1-.11.43l-1,2.77Z" transform="translate(-23.68 -133.32)"/><path class="cls-3" d="M330.33,242.57h-1.88v5.81h-.76v-5.81h-1.87v-.69h4.51Z" transform="translate(-23.68 -133.32)"/><path class="cls-3" d="M332.11,248.38h-.76v-6.5h.76Z" transform="translate(-23.68 -133.32)"/><path class="cls-3" d="M336.44,248.49a2.86,2.86,0,0,1-2.21-.91,3.37,3.37,0,0,1-.84-2.37,3.63,3.63,0,0,1,.85-2.51,3,3,0,0,1,2.31-.93,2.77,2.77,0,0,1,2.17.91,3.37,3.37,0,0,1,.82,2.37,3.58,3.58,0,0,1-.84,2.51A2.9,2.9,0,0,1,336.44,248.49Zm.06-6a2.11,2.11,0,0,0-1.67.74,2.89,2.89,0,0,0-.64,1.94,2.86,2.86,0,0,0,.63,1.93,2,2,0,0,0,1.62.73,2.16,2.16,0,0,0,1.69-.69,2.88,2.88,0,0,0,.61-2,3,3,0,0,0-.6-2A2,2,0,0,0,336.5,242.46Z" transform="translate(-23.68 -133.32)"/><path class="cls-3" d="M346.06,248.38h-.93l-3.35-5.18a3.17,3.17,0,0,1-.21-.41h0a5.63,5.63,0,0,1,0,.89v4.7h-.76v-6.5h1l3.25,5.1a2.94,2.94,0,0,1,.26.43h0a7,7,0,0,1,0-.95v-4.58h.76Z" transform="translate(-23.68 -133.32)"/><polygon class="cls-2" points="147.71 112.36 138.71 112.36 138.08 76.4 153.07 76.4 153.07 77.4 139.1 77.4 139.7 111.36 147.71 111.36 147.71 112.36"/><polygon class="cls-2" points="335.03 112.36 326.04 112.36 326.04 111.36 334.05 111.36 334.64 77.4 329.12 77.4 329.12 76.4 335.66 76.4 335.03 112.36"/></g></svg>