<svg id="logo" xmlns="http://www.w3.org/2000/svg" viewBox="0 0 370 108.07"><defs><style>.cls-1{fill:#414042;}.cls-2{fill:#046;}</style></defs><path class="cls-1" d="M379,178v10H350v9h29v29H341V216h29v-9H341V178h38m3-3H338v35h29v3H338v16h44V194H353v-3h29V175Z" transform="translate(-13 -142)"/><polygon class="cls-1" points="366 84 366 84 295 84 295 46.15 300.86 36 328 36 328 65 357 65 357 75 328 75 328 84 366 84"/><path class="cls-1" d="M112,225V206a8.83,8.83,0,0,0-.93-4,15.35,15.35,0,0,0-2.34-3.3,27.8,27.8,0,0,0-3.33-3c-1-.74-1.94-1.51-3-2.33,1.8-1.87,3.2-3.24,4.27-4.19a26.19,26.19,0,0,0,3.57-3.86,8.34,8.34,0,0,0,1.73-5V159.53a9.74,9.74,0,0,0-1.16-3.95,16.58,16.58,0,0,0-3.52-4.67,24.77,24.77,0,0,0-7.2-4.4q-.63-.27-1.29-.51H131v79Z" transform="translate(-13 -142)"/><path class="cls-1" d="M130,147v77H113V206a9.92,9.92,0,0,0-1-4.5,15.87,15.87,0,0,0-2.5-3.51,28.87,28.87,0,0,0-3.44-3.08c-.69-.54-1.39-1.08-2.09-1.64,1.42-1.45,2.55-2.55,3.43-3.33a27,27,0,0,0,3.73-4,9.35,9.35,0,0,0,1.92-5.64V159.53a10.46,10.46,0,0,0-1.26-4.38,17.41,17.41,0,0,0-3.73-5,20.83,20.83,0,0,0-4.58-3.19H130m2-2H96v1.19a23.06,23.06,0,0,1,3.71,1.24,24.05,24.05,0,0,1,6.92,4.2,15.75,15.75,0,0,1,3.31,4.38,8.85,8.85,0,0,1,1.06,3.52v20.74a7.27,7.27,0,0,1-1.53,4.44,24.33,24.33,0,0,1-3.44,3.72q-1.87,1.68-5.08,5c1.35,1.09,2.62,2.09,3.84,3a26.1,26.1,0,0,1,3.2,2.87,14.21,14.21,0,0,1,2.19,3.07A7.81,7.81,0,0,1,111,206v20h21V145Z" transform="translate(-13 -142)"/><path class="cls-1" d="M223,225V207a1,1,0,0,0-1-1H159V195h63a1,1,0,0,0,1-1V177a1,1,0,0,0-1-1H159V166h63a1,1,0,0,0,1-1V146h41.34L284,180.2V225Z" transform="translate(-13 -142)"/><path class="cls-1" d="M263.76,147,283,180.47V224H224V207a2,2,0,0,0-2-2H160v-9h62a2,2,0,0,0,2-2V177a2,2,0,0,0-2-2H160v-8h62a2,2,0,0,0,2-2V147h39.76m1.15-2H222v20H158v12h64v17H158v13h64v19h63V179.93L264.91,145Z" transform="translate(-13 -142)"/><path class="cls-2" d="M285,225l-44.64-79h23.95L298,203.84a1,1,0,0,0,.86.5h0a1,1,0,0,0,.87-.49l8.85-15.12,5.94-10.14L333.59,146h24.06l-44.73,79Z" transform="translate(-13 -142)"/><path class="cls-1" d="M355.93,147l-17,30.1L312.33,224H285.61l-43.52-77h21.67l19.72,33.89,13.64,23.46a2,2,0,0,0,1.73,1h0a2,2,0,0,0,1.73-1l8.85-15.12,5.94-10.13L334.16,147h21.77m3.43-2H333l-19.37,33.09-5.95,10.13-8.85,15.12-13.64-23.45L264.91,145H238.67l45.71,80.9.06.1H313.5l27.13-47.91L359.36,145Z" transform="translate(-13 -142)"/><path class="cls-1" d="M222,145v20H158v12h64v17H158v13h64v19H132V145h90m3-3H129v87h96V204H161v-7h64V174H161v-6h64V142Z" transform="translate(-13 -142)"/><path class="cls-2" d="M89,225V209.16c0-.65-.49-1.19-1.23-1.81a20.06,20.06,0,0,0-2.11-1.5c-.74-.46-1.47-.88-2.17-1.24a4,4,0,0,0-1.76-.61H38a1,1,0,0,0-1,1v20H14V146H93.15a27.45,27.45,0,0,1,6.81.79A19,19,0,0,1,103.2,148a20.82,20.82,0,0,1,6.06,4,14.52,14.52,0,0,1,2.85,4.12,8.69,8.69,0,0,1,.89,3.12v20.84a6.8,6.8,0,0,1-1.23,3.9,22.32,22.32,0,0,1-3,3.58c-1.15,1.13-2.7,2.8-4.73,5.11a1,1,0,0,0,.09,1.41c1.25,1.1,2.42,2.11,3.55,3.06a24.83,24.83,0,0,1,2.83,2.77,12.94,12.94,0,0,1,1.86,2.87,7.37,7.37,0,0,1,.66,3.15V225ZM38,164a1,1,0,0,0-1,1v20a1,1,0,0,0,1,1H79.39c3.78,0,6.62-1.11,8.44-3.29a12.41,12.41,0,0,0,2.67-8.15,17.75,17.75,0,0,0-.34-3.28,11.66,11.66,0,0,0-1.25-3.44,8.29,8.29,0,0,0-2.4-2.72A6.37,6.37,0,0,0,82.76,164Z" transform="translate(-13 -142)"/><path class="cls-1" d="M93.15,147a26.3,26.3,0,0,1,6.55.76,17.78,17.78,0,0,1,3.06,1.11,19.76,19.76,0,0,1,5.77,3.8,13.53,13.53,0,0,1,2.66,3.82,7.75,7.75,0,0,1,.81,2.73v20.84a5.81,5.81,0,0,1-1,3.33,22.52,22.52,0,0,1-2.91,3.44c-1.17,1.14-2.73,2.83-4.78,5.17a2,2,0,0,0,.18,2.81c1.23,1.08,2.39,2.09,3.57,3.08a23.39,23.39,0,0,1,2.7,2.64,12.14,12.14,0,0,1,1.72,2.63,6.47,6.47,0,0,1,.57,2.75V224H90V209.16a3.52,3.52,0,0,0-1.59-2.58A22.9,22.9,0,0,0,86.18,205c-.76-.46-1.5-.89-2.25-1.28a4.94,4.94,0,0,0-2.2-.71H38a2,2,0,0,0-2,2v19H15V147H93.15M38,187H79.39c4.09,0,7.19-1.23,9.21-3.65a13.36,13.36,0,0,0,2.9-8.79,18.11,18.11,0,0,0-.36-3.47,12.74,12.74,0,0,0-1.36-3.74,9.43,9.43,0,0,0-2.7-3,7.31,7.31,0,0,0-4.32-1.3H38a2,2,0,0,0-2,2v20a2,2,0,0,0,2,2m55.15-42H13v81H38V205H81.73a3.86,3.86,0,0,1,1.29.49c.65.34,1.36.74,2.11,1.21a18.21,18.21,0,0,1,2,1.42c.58.48.87.82.87,1V226h26V205.91a8.55,8.55,0,0,0-.75-3.59,14.79,14.79,0,0,0-2-3.08,25.17,25.17,0,0,0-2.94-2.88c-1.13-1-2.29-2-3.53-3.05,2-2.24,3.51-3.93,4.66-5.05a24.3,24.3,0,0,0,3.17-3.73,7.85,7.85,0,0,0,1.4-4.47V159.22a9.42,9.42,0,0,0-1-3.53,15.65,15.65,0,0,0-3-4.4,21.61,21.61,0,0,0-6.35-4.22,19.35,19.35,0,0,0-3.41-1.24,28,28,0,0,0-7.07-.83ZM38,185V165H82.76a5.3,5.3,0,0,1,3.16.93,7.35,7.35,0,0,1,2.12,2.4,10.92,10.92,0,0,1,1.14,3.14,16.22,16.22,0,0,1,.32,3.09,11.34,11.34,0,0,1-2.44,7.51Q84.63,185,79.39,185Z" transform="translate(-13 -142)"/><path d="M14,244v6H13V237h4.45c2.45,0,3.75,1.37,3.75,3.42a2.91,2.91,0,0,1-2.33,3c1.28.32,2.13,1.19,2.13,3.4v.5a9.1,9.1,0,0,0,.16,2.64h-1a8.88,8.88,0,0,1-.18-2.68V247c0-2.11-.6-3-3-3Zm0-1h3.15c2.29,0,3.35-.84,3.35-2.53s-1-2.47-3.07-2.47H14Z" transform="translate(-13 -142)"/><path d="M37,243H30v6h8l-.16,1H29V237h8v1H30v4h7Z" transform="translate(-13 -142)"/><path d="M43.93,246c.37,1.63,1.47,2.59,3.52,2.59,2.27,0,3.14-1.12,3.14-2.45s-.62-2.24-3.36-2.9-3.77-1.49-3.77-3.26c0-1.61,1.2-3.11,3.86-3.11s3.9,1.64,4.06,3.13h-1c-.28-1.31-1.15-2.26-3.11-2.26-1.8,0-2.77.82-2.77,2.19s.81,1.87,3.11,2.43c3.5.86,4,2.24,4,3.71,0,1.8-1.34,3.36-4.22,3.36-3.11,0-4.25-1.79-4.48-3.43Z" transform="translate(-13 -142)"/><path d="M59,237v7.83c0,3.43,2.06,4.32,4,4.32,2.29,0,4-.91,4-4.32V237h1v7.77c0,4-2.24,5.3-5,5.3s-5-1.38-5-5.13V237Z" transform="translate(-13 -142)"/><path d="M75,237h1v12h7.65l-.21,1H75Z" transform="translate(-13 -142)"/><path d="M90,238H85v-1H95v1H91v12H90Z" transform="translate(-13 -142)"/><path d="M101.28,246c.37,1.63,1.47,2.59,3.52,2.59,2.28,0,3.15-1.12,3.15-2.45s-.63-2.24-3.36-2.9-3.77-1.49-3.77-3.26c0-1.61,1.19-3.11,3.86-3.11s3.89,1.64,4,3.13h-1c-.28-1.31-1.15-2.26-3.11-2.26-1.79,0-2.77.82-2.77,2.19s.82,1.87,3.11,2.43c3.5.86,4,2.24,4,3.71,0,1.8-1.34,3.36-4.22,3.36-3.11,0-4.25-1.79-4.48-3.43Z" transform="translate(-13 -142)"/><path d="M127.71,250l-4.91-13h1.11l2.56,6.78c.73,2,1.56,4.13,1.84,5.22h0c.28-1,1.19-3.24,1.92-5.15l2.65-6.85H134l-5.09,13Z" transform="translate(-13 -142)"/><path d="M148,243h-7v6H149l-.16,1H140V237h8v1h-7v4h7Z" transform="translate(-13 -142)"/><path d="M156,244v6h-1V237h4.45c2.45,0,3.75,1.37,3.75,3.42a2.91,2.91,0,0,1-2.33,3c1.28.32,2.13,1.19,2.13,3.4v.5a9.1,9.1,0,0,0,.16,2.64h-1a8.88,8.88,0,0,1-.18-2.68V247c0-2.11-.6-3-3-3Zm0-1h3.15c2.29,0,3.35-.84,3.35-2.53s-1-2.47-3.07-2.47H156Z" transform="translate(-13 -142)"/><path d="M171,237v13h-1V237Z" transform="translate(-13 -142)"/><path d="M179,237h8v1h-7v4h7v1h-7v7h-1Z" transform="translate(-13 -142)"/><path d="M194,237v13h-1V237Z" transform="translate(-13 -142)"/><path d="M211.39,246a4.81,4.81,0,0,1-5,3.63c-3.8,0-5.81-3-5.81-6.65,0-3.52,2-6.73,5.83-6.73,2.86,0,4.55,1.57,5,3.75h-1a3.83,3.83,0,0,0-4-2.81c-3.29,0-4.67,3-4.67,5.77s1.36,5.74,4.75,5.74a3.88,3.88,0,0,0,3.92-2.7Z" transform="translate(-13 -142)"/><path d="M219.16,245l-1.67,4h-.64l4.48-12h1.11l4.67,12h-.71l-1.71-4Zm5.36-1c-1.56-4.1-2.36-6.07-2.64-7h0c-.35,1.05-1.25,3.49-2.51,7Z" transform="translate(-13 -142)"/><path d="M235,238h-5v-1h10v1h-4v12h-1Z" transform="translate(-13 -142)"/><path d="M247,237v13h-1V237Z" transform="translate(-13 -142)"/><path d="M265.28,243.06c0,3.53-1.91,6.74-6,6.74-3.7,0-5.85-2.93-5.85-6.64s2.08-6.65,6-6.65C263.05,236.51,265.28,239.3,265.28,243.06Zm-10.74,0c0,3,1.67,5.78,4.83,5.78,3.4,0,4.82-2.73,4.82-5.8s-1.61-5.65-4.78-5.65C256,237.43,254.54,240.18,254.54,243.1Z" transform="translate(-13 -142)"/><path d="M272,250V237h1.48c2,3.17,6.78,10.56,7.59,12h0c-.11-1.91-.09-3.86-.09-6v-6h1v13h-1.53c-1.89-3-6.61-10.57-7.52-12h0c.09,1.71.07,3.6.07,6v6Z" transform="translate(-13 -142)"/><path d="M298.42,246c.37,1.63,1.47,2.59,3.52,2.59,2.27,0,3.14-1.12,3.14-2.45s-.62-2.24-3.36-2.9S298,241.75,298,240c0-1.61,1.2-3.11,3.86-3.11s3.9,1.64,4.06,3.13h-1c-.28-1.31-1.15-2.26-3.11-2.26-1.8,0-2.77.82-2.77,2.19s.81,1.87,3.11,2.43c3.5.86,4,2.24,4,3.71,0,1.8-1.34,3.36-4.22,3.36-3.11,0-4.25-1.79-4.48-3.43Z" transform="translate(-13 -142)"/><path d="M316,250v-4.88a.69.69,0,0,0-.07-.3L311.38,237h1.15c1.27,2.21,3.49,6.05,4,7,.55-1,2.79-4.77,4.15-7h1.09l-4.75,7.89a.7.7,0,0,0-.05.28V250Z" transform="translate(-13 -142)"/><path d="M327.61,246c.37,1.63,1.47,2.59,3.52,2.59,2.28,0,3.15-1.12,3.15-2.45s-.63-2.24-3.36-2.9-3.77-1.49-3.77-3.26c0-1.61,1.19-3.11,3.85-3.11s3.9,1.64,4.06,3.13h-1c-.28-1.31-1.15-2.26-3.11-2.26-1.79,0-2.77.82-2.77,2.19s.82,1.87,3.11,2.43c3.5.86,4,2.24,4,3.71,0,1.8-1.34,3.36-4.22,3.36-3.11,0-4.25-1.79-4.48-3.43Z" transform="translate(-13 -142)"/><path d="M345,238h-5v-1h10v1h-4v12h-1Z" transform="translate(-13 -142)"/><path d="M364,243h-7v6H365l-.16,1H356V237h8v1h-7v4h7Z" transform="translate(-13 -142)"/><path d="M382,244.15c0-2.5,0-4.88.07-6.15H382c-.52,1.71-3.15,8-4.8,12h-.76c-1.24-3.1-4-10.08-4.55-12h0c.09,1.45.13,4.41.13,6.59V250h-1V237h1.47c1.75,4.55,3.95,10.5,4.42,12h0c.29-1,2.83-7.58,4.62-12H383v13h-1Z" transform="translate(-13 -142)"/></svg>